# xmcd CD database file
#
# Track frame offsets:
#	182
#	15705
#	29462
#	47227
#	68900
#	90040
#	107135
#	132122
#	212485
#	219550
#	230075
#	240957
#	254885
#	268972
#
# Disc length: 3690 seconds
#
# Revision: 0
# Processed by: cddbd v1.4PL0 Copyright (c) Steve Scherf et al.
# Submitted via: CDex 1.51
#
DISCID=c80e680e
DTITLE=Charlie Parker and Billie Holiday - Jazz Greats
DYEAR=1900
DGENRE=Jazz
TTITLE0=How Deep Is the Ocean
TTITLE1=Bongo Beep
TTITLE2=Tiger Rag
TTITLE3=Groovin' High
TTITLE4=Big Foot
TTITLE5=Salt Peanuts
TTITLE6=Dance of the Infidels
TTITLE7=Nice Work If You Can Get It Medely
TTITLE8=You're Driving Me Crazy
TTITLE9=Tain't Nobody's Business If I Do
TTITLE10=Detour Ahead
TTITLE11=I Can't Pretend
TTITLE12=Until The Real Thing Comes Along
TTITLE13=Miss Brown To You
EXTD=
EXTT0=
EXTT1=
EXTT2=
EXTT3=
EXTT4=
EXTT5=
EXTT6=
EXTT7=
EXTT8=
EXTT9=
EXTT10=
EXTT11=
EXTT12=
EXTT13=
PLAYORDER=
